<svg width="96" height="64" viewBox="0 0 96 64" fill="none" xmlns="http://www.w3.org/2000/svg">
<g clip-path="url(#clip0)">
<path d="M31 -1H65V33H31V-1Z" fill="black"/>
<path d="M34 2H62V30H34V2Z" fill="#DF2FB7"/>
<path d="M34 2H38V6H34V2ZM38 6H46V14H38V6Z" fill="white"/>
<path d="M42 10H47V15H42V10Z" fill="#DF2FB7"/>
</g>
<g clip-path="url(#clip1)">
<path d="M63 -1H97V33H63V-1Z" fill="black"/>
<path d="M66 2H94V30H66V2Z" fill="#DF2FB7"/>
<path d="M66 2H70V6H66V2ZM70 6H78V14H70V6Z" fill="white"/>
<path d="M74 10H79V15H74V10Z" fill="#DF2FB7"/>
</g>
<g clip-path="url(#clip2)">
<path d="M-1 31H33V65H-1V31Z" fill="black"/>
<path d="M2 34H30V62H2V34Z" fill="#DF2FB7"/>
<path d="M2 34H6V38H2V34ZM6 38H14V46H6V38Z" fill="white"/>
<path d="M10 42H15V47H10V42Z" fill="#DF2FB7"/>
</g>
<g clip-path="url(#clip3)">
<path d="M31 31H65V65H31V31Z" fill="black"/>
<path d="M34 34H62V62H34V34Z" fill="#DF2FB7"/>
<path d="M34 34H38V38H34V34ZM38 38H46V46H38V38Z" fill="white"/>
<path d="M42 42H47V47H42V42Z" fill="#DF2FB7"/>
</g>
<defs>
<clipPath id="clip0">
<rect width="32" height="32" fill="white" transform="translate(32)"/>
</clipPath>
<clipPath id="clip1">
<rect width="32" height="32" fill="white" transform="translate(64)"/>
</clipPath>
<clipPath id="clip2">
<rect width="32" height="32" fill="white" transform="translate(0 32)"/>
</clipPath>
<clipPath id="clip3">
<rect width="32" height="32" fill="white" transform="translate(32 32)"/>
</clipPath>
</defs>
</svg>
