<svg xmlns="http://www.w3.org/2000/svg" width="96" height="64" fill="none" viewBox="0 0 96 64">
    <g clip-path="url(#clip0)">
        <path fill="black" d="M31 -1H65V33H31V-1Z"/>
        <path fill="#6E5DF3" d="M34 2H62V30H34V2Z"/>
        <path fill="white" d="M34 2H38V6H34V2ZM38 6H46V14H38V6Z"/>
        <path fill="#6E5DF3" d="M42 10H47V15H42V10Z"/>
    </g>
    <g clip-path="url(#clip1)">
        <path fill="black" d="M63 -1H97V33H63V-1Z"/>
        <path fill="#6E5DF3" d="M66 2H94V30H66V2Z"/>
        <path fill="white" d="M66 2H70V6H66V2ZM70 6H78V14H70V6Z"/>
        <path fill="#6E5DF3" d="M74 10H79V15H74V10Z"/>
    </g>
    <g clip-path="url(#clip2)">
        <path fill="black" d="M-1 -1H33V33H-1V-1Z"/>
        <path fill="#6E5DF3" d="M2 2H30V30H2V2Z"/>
        <path fill="white" d="M2 2H6V6H2V2ZM6 6H14V14H6V6Z"/>
        <path fill="#6E5DF3" d="M10 10H15V15H10V10Z"/>
    </g>
    <g clip-path="url(#clip3)">
        <path fill="black" d="M63 31H97V65H63V31Z"/>
        <path fill="#6E5DF3" d="M66 34H94V62H66V34Z"/>
        <path fill="white" d="M66 34H70V38H66V34ZM70 38H78V46H70V38Z"/>
        <path fill="#6E5DF3" d="M74 42H79V47H74V42Z"/>
    </g>
    <defs>
        <clipPath id="clip0">
            <rect width="32" height="32" fill="white" transform="translate(32)"/>
        </clipPath>
        <clipPath id="clip1">
            <rect width="32" height="32" fill="white" transform="translate(64)"/>
        </clipPath>
        <clipPath id="clip2">
            <rect width="32" height="32" fill="white"/>
        </clipPath>
        <clipPath id="clip3">
            <rect width="32" height="32" fill="white" transform="translate(64 32)"/>
        </clipPath>
    </defs>
</svg>
