<svg width="96" height="64" viewBox="0 0 96 64" fill="none" xmlns="http://www.w3.org/2000/svg">
<g clip-path="url(#clip0)">
<path d="M-1 -1H33V33H-1V-1Z" fill="black"/>
<path d="M2 2H30V30H2V2Z" fill="#77C8FF"/>
<path d="M2 2H6V6H2V2ZM6 6H14V14H6V6Z" fill="white"/>
<path d="M10 10H15V15H10V10Z" fill="#77C8FF"/>
</g>
<g clip-path="url(#clip1)">
<path d="M31 -1H65V33H31V-1Z" fill="black"/>
<path d="M34 2H62V30H34V2Z" fill="#77C8FF"/>
<path d="M34 2H38V6H34V2ZM38 6H46V14H38V6Z" fill="white"/>
<path d="M42 10H47V15H42V10Z" fill="#77C8FF"/>
</g>
<g clip-path="url(#clip2)">
<path d="M63 31H97V65H63V31Z" fill="black"/>
<path d="M66 34H94V62H66V34Z" fill="#77C8FF"/>
<path d="M66 34H70V38H66V34ZM70 38H78V46H70V38Z" fill="white"/>
<path d="M74 42H79V47H74V42Z" fill="#77C8FF"/>
</g>
<g clip-path="url(#clip3)">
<path d="M31 31H65V65H31V31Z" fill="black"/>
<path d="M34 34H62V62H34V34Z" fill="#77C8FF"/>
<path d="M34 34H38V38H34V34ZM38 38H46V46H38V38Z" fill="white"/>
<path d="M42 42H47V47H42V42Z" fill="#77C8FF"/>
</g>
<defs>
<clipPath id="clip0">
<rect width="32" height="32" fill="white"/>
</clipPath>
<clipPath id="clip1">
<rect width="32" height="32" fill="white" transform="translate(32)"/>
</clipPath>
<clipPath id="clip2">
<rect width="32" height="32" fill="white" transform="translate(64 32)"/>
</clipPath>
<clipPath id="clip3">
<rect width="32" height="32" fill="white" transform="translate(32 32)"/>
</clipPath>
</defs>
</svg>
