<svg width="128" height="32" viewBox="0 0 128 32" fill="none" xmlns="http://www.w3.org/2000/svg">
<g clip-path="url(#clip0)">
<path d="M-1 -1H33V33H-1V-1Z" fill="black"/>
<path d="M2 2H30V30H2V2Z" fill="#3AFCB6"/>
<path d="M2 2H6V6H2V2ZM6 6H26V26H6V6Z" fill="white"/>
</g>
<g clip-path="url(#clip1)">
<path d="M31 -1H65V33H31V-1Z" fill="black"/>
<path d="M34 2H62V30H34V2Z" fill="#3AFCB6"/>
<path d="M34 2H38V6H34V2ZM38 6H58V26H38V6Z" fill="white"/>
</g>
<g clip-path="url(#clip2)">
<path d="M63 -1H97V33H63V-1Z" fill="black"/>
<path d="M66 2H94V30H66V2Z" fill="#3AFCB6"/>
<path d="M66 2H70V6H66V2ZM70 6H90V26H70V6Z" fill="white"/>
</g>
<g clip-path="url(#clip3)">
<path d="M95 -1H129V33H95V-1Z" fill="black"/>
<path d="M98 2H126V30H98V2Z" fill="#3AFCB6"/>
<path d="M98 2H102V6H98V2ZM102 6H122V26H102V6Z" fill="white"/>
</g>
<defs>
<clipPath id="clip0">
<rect width="32" height="32" fill="white"/>
</clipPath>
<clipPath id="clip1">
<rect width="32" height="32" fill="white" transform="translate(32)"/>
</clipPath>
<clipPath id="clip2">
<rect width="32" height="32" fill="white" transform="translate(64)"/>
</clipPath>
<clipPath id="clip3">
<rect width="32" height="32" fill="white" transform="translate(96)"/>
</clipPath>
</defs>
</svg>
